<?xml version="1.0" encoding="UTF-8"?>
<svg xmlns="http://www.w3.org/2000/svg" width="77" height="77" viewBox="6 -6.5 77 77" preserveAspectRatio="xMidYMid meet" version="1.0">
<path fill="#caaf91" d="M 82.109375 26.945312 C 79.269531 25.054688 75.800781 24.582031 72.488281 25.527344 C 69.335938 26.472656 66.652344 28.679688 65.078125 31.671875 C 64.761719 32.300781 64.917969 33.089844 65.550781 33.5625 C 67.441406 34.824219 69.648438 35.453125 72.015625 35.453125 C 73.121094 35.453125 74.066406 35.296875 75.171875 34.980469 C 78.480469 34.035156 81.003906 31.828125 82.582031 28.835938 C 83.054688 28.207031 82.898438 27.257812 82.109375 26.945312 Z M 74.539062 32.144531 C 72.648438 32.617188 70.4375 32.460938 68.546875 31.671875 C 69.808594 29.9375 71.386719 28.835938 73.433594 28.207031 C 75.484375 27.574219 77.535156 27.734375 79.429688 28.679688 C 78.167969 30.410156 76.433594 31.671875 74.539062 32.144531 Z M 74.539062 32.144531 " fill-opacity="1" fill-rule="nonzero"/>
<path fill="#caaf91" d="M 55.457031 18.121094 C 55.613281 18.121094 55.769531 18.121094 55.929688 18.121094 C 59.082031 17.019531 61.765625 14.8125 63.183594 11.816406 C 64.601562 8.824219 64.601562 5.355469 63.339844 2.207031 C 63.027344 1.574219 62.238281 1.101562 61.605469 1.417969 C 58.292969 2.519531 55.769531 4.726562 54.351562 7.722656 C 52.933594 10.714844 52.933594 14.179688 54.195312 17.332031 C 54.351562 17.804688 54.824219 18.121094 55.457031 18.121094 Z M 56.875 8.824219 C 57.820312 6.933594 59.242188 5.515625 61.132812 4.570312 C 61.605469 6.617188 61.449219 8.667969 60.660156 10.558594 C 59.871094 12.449219 58.292969 13.867188 56.558594 14.8125 C 55.769531 12.761719 55.929688 10.714844 56.875 8.824219 Z M 56.875 8.824219 " fill-opacity="1" fill-rule="nonzero"/>
<path fill="#caaf91" d="M 17.445312 35.453125 C 19.65625 35.453125 21.863281 34.824219 23.914062 33.5625 C 24.542969 33.246094 24.859375 32.300781 24.386719 31.671875 C 22.808594 28.519531 20.128906 26.472656 16.972656 25.527344 C 13.660156 24.582031 10.347656 25.054688 7.351562 26.945312 C 6.722656 27.417969 6.5625 28.207031 6.878906 28.835938 C 8.457031 31.828125 11.136719 34.035156 14.292969 34.980469 C 15.394531 35.296875 16.5 35.453125 17.445312 35.453125 Z M 10.191406 28.679688 C 12.085938 27.890625 14.132812 27.734375 16.183594 28.363281 C 18.234375 28.992188 19.8125 30.097656 21.074219 31.828125 C 19.179688 32.617188 17.132812 32.773438 15.082031 32.300781 C 13.1875 31.671875 11.453125 30.410156 10.191406 28.679688 Z M 10.191406 28.679688 " fill-opacity="1" fill-rule="nonzero"/>
<path fill="#caaf91" d="M 33.691406 18.121094 C 33.847656 18.121094 34.007812 18.121094 34.164062 18.121094 C 34.796875 18.121094 35.269531 17.804688 35.425781 17.175781 C 36.84375 14.023438 36.6875 10.558594 35.269531 7.5625 C 33.847656 4.570312 31.324219 2.207031 28.011719 1.261719 C 27.226562 1.101562 26.59375 1.417969 26.277344 2.046875 C 25.015625 5.199219 25.015625 8.667969 26.4375 11.660156 C 27.855469 14.652344 30.535156 17.019531 33.691406 18.121094 Z M 28.644531 4.570312 C 30.535156 5.515625 31.957031 6.933594 32.902344 8.824219 C 33.691406 10.714844 34.007812 12.761719 33.375 14.8125 C 31.484375 13.867188 30.0625 12.449219 29.273438 10.558594 C 28.171875 8.667969 28.011719 6.460938 28.644531 4.570312 Z M 28.644531 4.570312 " fill-opacity="1" fill-rule="nonzero"/>
<path fill="#caaf91" d="M 64.128906 35.453125 C 62.078125 35.453125 59.871094 35.925781 57.820312 36.714844 C 58.292969 37.660156 58.925781 38.445312 59.554688 39.078125 C 60.976562 38.445312 62.554688 38.289062 64.128906 38.289062 C 67.914062 38.289062 71.699219 40.023438 74.222656 43.015625 C 72.332031 43.960938 70.4375 44.433594 68.386719 44.433594 C 65.707031 44.433594 63.027344 43.648438 60.816406 42.070312 C 58.292969 40.339844 56.558594 37.660156 55.613281 34.824219 C 55.296875 33.878906 55.140625 32.933594 55.140625 31.988281 C 56.246094 31.988281 57.347656 31.828125 58.292969 31.671875 C 65.550781 30.253906 71.226562 24.582031 72.332031 17.175781 C 72.488281 16.386719 71.859375 15.757812 71.226562 15.597656 C 70.28125 15.441406 69.335938 15.285156 68.230469 15.285156 C 60.976562 15.285156 54.507812 20.167969 52.773438 27.257812 C 52.773438 27.257812 52.773438 27.417969 52.773438 27.417969 C 53.722656 27.574219 54.667969 27.734375 55.769531 27.574219 C 57.347656 21.902344 62.554688 18.121094 68.386719 18.121094 C 68.703125 18.121094 69.019531 18.121094 69.335938 18.121094 C 67.914062 23.476562 63.5 27.734375 57.980469 28.679688 C 55.769531 29.152344 53.40625 28.992188 51.199219 28.363281 C 50.09375 28.046875 48.988281 27.574219 48.042969 26.945312 C 47.726562 26.785156 47.570312 26.628906 47.253906 26.472656 C 47.726562 26 48.042969 25.683594 48.359375 25.210938 C 50.882812 22.058594 52.144531 18.4375 52.144531 14.496094 C 52.144531 9.296875 49.9375 4.410156 45.992188 1.101562 C 45.519531 0.628906 44.730469 0.628906 44.101562 1.101562 C 40.15625 4.410156 37.949219 9.296875 37.949219 14.496094 C 37.949219 18.59375 39.367188 22.53125 41.890625 25.527344 C 42.679688 25.054688 43.46875 24.421875 44.101562 23.636719 C 41.890625 21.113281 40.789062 17.804688 40.789062 14.339844 C 40.789062 10.398438 42.367188 6.777344 45.046875 4.097656 C 47.726562 6.777344 49.304688 10.558594 49.304688 14.339844 C 49.304688 17.648438 48.199219 20.800781 46.152344 23.320312 C 45.046875 24.738281 43.628906 26 41.890625 26.945312 C 41.578125 27.101562 41.105469 27.417969 40.789062 27.574219 C 40.15625 27.890625 39.527344 28.046875 38.738281 28.363281 C 38.894531 29.308594 39.054688 30.253906 39.054688 31.199219 C 39.054688 31.515625 39.054688 31.828125 39.054688 32.144531 C 40.316406 32.460938 41.578125 33.089844 42.679688 33.71875 C 42.207031 34.191406 41.734375 34.664062 41.261719 35.296875 C 39.84375 37.027344 38.738281 39.078125 38.105469 41.285156 C 37.792969 40.96875 37.632812 40.652344 37.320312 40.339844 C 35.742188 38.605469 33.847656 37.34375 31.484375 36.398438 C 29.75 35.769531 27.699219 35.296875 25.804688 35.296875 C 20.441406 35.296875 15.394531 37.972656 12.398438 42.386719 C 12.242188 42.703125 12.085938 43.175781 12.242188 43.488281 C 12.242188 43.804688 12.558594 44.277344 12.871094 44.433594 C 15.394531 46.324219 18.550781 47.269531 21.546875 47.269531 C 26.59375 47.269531 31.011719 44.90625 34.007812 41.285156 C 34.320312 41.597656 34.636719 41.914062 34.953125 42.230469 C 36.214844 43.648438 37.003906 45.378906 37.160156 47.269531 C 37.160156 48.058594 37.320312 48.847656 37.476562 49.632812 C 38.105469 52.628906 39.527344 55.464844 41.578125 57.671875 C 42.367188 57.199219 43.152344 56.566406 43.941406 55.9375 C 42.207031 54.046875 40.945312 51.683594 40.316406 49.003906 C 39.210938 43.332031 41.578125 37.816406 45.835938 34.507812 C 45.992188 34.351562 46.152344 34.191406 46.308594 34.191406 C 46.308594 34.191406 46.308594 34.191406 46.464844 34.191406 C 46.625 34.035156 46.78125 34.035156 46.9375 33.878906 C 46.9375 33.878906 47.097656 33.878906 47.097656 33.71875 C 47.253906 33.5625 47.414062 33.5625 47.570312 33.40625 C 47.726562 33.40625 47.726562 33.246094 47.886719 33.246094 C 49.148438 32.617188 50.410156 32.144531 51.828125 31.828125 C 51.984375 31.828125 52.144531 31.828125 52.300781 31.828125 C 52.300781 33.089844 52.460938 34.191406 52.773438 35.296875 C 53.089844 36.554688 53.5625 37.660156 54.195312 38.761719 C 53.246094 39.550781 52.460938 40.339844 51.828125 41.285156 C 51.039062 38.921875 49.777344 36.554688 48.199219 34.664062 C 47.414062 35.136719 46.625 35.769531 45.835938 36.398438 C 48.832031 39.707031 50.410156 44.277344 49.460938 49.003906 C 48.988281 51.367188 48.042969 53.417969 46.625 55.148438 C 45.203125 56.882812 43.46875 58.300781 41.417969 59.246094 C 40.628906 59.5625 39.84375 59.875 38.894531 60.191406 C 38.105469 60.347656 37.632812 61.136719 37.949219 61.925781 C 38.105469 62.554688 38.738281 63.027344 39.367188 63.027344 C 39.527344 63.027344 39.683594 63.027344 39.683594 63.027344 C 40.628906 62.714844 41.734375 62.398438 42.679688 61.925781 C 43.46875 61.609375 44.257812 61.136719 45.046875 60.507812 C 46.625 61.609375 48.359375 62.398438 50.410156 63.027344 C 50.566406 63.027344 50.722656 63.027344 50.722656 63.027344 C 51.355469 63.027344 51.984375 62.554688 52.144531 61.925781 C 52.300781 61.136719 51.828125 60.347656 51.199219 60.191406 C 49.9375 59.875 48.675781 59.246094 47.570312 58.617188 C 48.042969 58.144531 48.675781 57.511719 48.988281 57.039062 C 50.722656 54.835938 51.828125 52.3125 52.460938 49.632812 C 52.617188 48.847656 52.773438 48.058594 52.773438 47.269531 C 53.089844 44.75 54.351562 42.859375 56.085938 41.285156 C 57.03125 42.386719 58.136719 43.488281 59.398438 44.277344 C 62.078125 46.167969 65.234375 47.113281 68.546875 47.113281 C 71.699219 47.113281 74.695312 46.167969 77.378906 44.433594 C 77.695312 44.277344 77.851562 43.960938 78.007812 43.488281 C 78.007812 43.175781 78.007812 42.703125 77.851562 42.386719 C 74.382812 38.132812 69.492188 35.453125 64.128906 35.453125 Z M 21.546875 44.433594 C 19.496094 44.433594 17.605469 43.960938 15.710938 43.015625 C 18.234375 40.023438 21.863281 38.289062 25.804688 38.289062 C 27.382812 38.289062 28.960938 38.605469 30.378906 39.078125 C 30.851562 39.234375 31.167969 39.394531 31.640625 39.550781 C 29.117188 42.542969 25.488281 44.433594 21.546875 44.433594 Z M 46.9375 30.726562 C 46.78125 30.726562 46.78125 30.882812 46.625 30.882812 C 46.464844 30.882812 46.308594 31.042969 46.308594 31.042969 C 46.152344 31.199219 45.992188 31.199219 45.835938 31.355469 C 45.675781 31.355469 45.675781 31.515625 45.519531 31.515625 C 45.363281 31.671875 45.203125 31.671875 44.890625 31.828125 C 43.941406 31.199219 42.996094 30.726562 41.890625 30.253906 C 42.367188 30.097656 42.839844 29.78125 43.152344 29.625 C 43.785156 29.308594 44.257812 28.992188 44.730469 28.519531 C 45.203125 28.835938 45.835938 29.308594 46.308594 29.625 C 46.78125 29.9375 47.253906 30.097656 47.570312 30.253906 C 47.570312 30.410156 47.253906 30.570312 46.9375 30.726562 Z M 46.9375 30.726562 " fill-opacity="1" fill-rule="nonzero"/>
<path fill="#caaf91" d="M 34.636719 31.828125 C 34.636719 32.460938 34.636719 33.089844 34.480469 33.71875 C 34.320312 34.507812 34.007812 35.296875 33.847656 36.082031 C 34.796875 36.554688 35.582031 37.027344 36.371094 37.660156 C 36.84375 36.554688 37.160156 35.453125 37.476562 34.191406 C 37.632812 33.246094 37.792969 32.144531 37.792969 31.199219 C 37.792969 29.625 37.476562 28.046875 37.003906 26.472656 C 34.953125 19.695312 28.800781 15.285156 21.703125 15.285156 C 20.601562 15.285156 19.65625 15.441406 18.707031 15.597656 C 17.917969 15.757812 17.445312 16.542969 17.605469 17.175781 C 18.707031 25.683594 25.964844 31.828125 34.636719 31.828125 Z M 21.546875 18.121094 C 27.382812 18.121094 32.429688 21.902344 34.164062 27.417969 C 34.320312 27.890625 34.480469 28.519531 34.480469 28.992188 C 27.855469 28.992188 22.179688 24.421875 20.601562 18.121094 C 20.917969 18.121094 21.230469 18.121094 21.546875 18.121094 Z M 21.546875 18.121094 " fill-opacity="1" fill-rule="nonzero"/>
</svg>